{"title":"Everest (2015) 1080p Blurred Subtitles-BDM","uid":12642320,"size":2535951080,"categoryP":"video","categoryS":"hd___movies","magnet":"?xt=urn:btih:828da49d9ba7d017e6105c29db33b9e48bf43c1f&amp;dn=Everest+%282015%29+1080p+Blurred+Subtitles-BDM&amp;tr=udp%3A%2F%2Ftracker.leechers-paradise.org%3A6969&amp;tr=udp%3A%2F%2Fzer0day.ch%3A1337&amp;tr=udp%3A%2F%2Fopen.demonii.com%3A1337&amp;tr=udp%3A%2F%2Ftracker.coppersurfer.tk%3A6969&amp;tr=udp%3A%2F%2Fexodus.desync.com%3A6969","seeders":0,"leechers":0,"uploader":"BigDogMoya","files":3,"time":1446010792,"description":"I would like to thank the original up-loaders for their time and effort uploading these movies! It is much appreciated.\r\nSource Torrent: Everest.2015.HC.1080p.HDRiP.x264.ShAaNiG.mkv\r\n\r\n\r\nIMDB Link: \nhttp://www.imdb.com/title/tt2719848/\r\n\r\n\r\nMedia Info:\r\n\r\nVideo\r\nID : 1\r\nFormat : AVC\r\nFormat/Info : Advanced Video Codec\r\nFormat profile : High   \r\nFormat settings, CABAC : Yes\r\nFormat settings, ReFrames : 4 frames\r\nCodec ID : avc1\r\nCodec ID/Info : Advanced Video Coding\r\nDuration : 2h 0mn\r\nBit rate : 2 677 Kbps\r\nMaximum bit rate : 10.1 Mbps\r\nWidth : 1 920 pixels\r\nHeight : 800 pixels\r\nDisplay aspect ratio : 2.40:1\r\nFrame rate mode : Constant\r\nFrame rate : 29.970 fps\r\nColor space : YUV\r\nChroma subsampling : 4:2:0\r\nBit depth : 10 bits\r\nScan type : Progressive\r\nBits/(Pixel*Frame) : 0.058\r\nStream size : 2.26 GiB (96%)\r\nWriting library : x264 core 146 r2538kMod 121396c\r\n\r\nAudio\r\nID : 2\r\nFormat : AAC\r\nFormat/Info : Advanced Audio Codec\r\nFormat profile : LC\r\nCodec ID : 40\r\nDuration : 2h 0mn\r\nBit rate mode : Variable\r\nBit rate : 103 Kbps\r\nChannel(s) : 2 channels\r\nChannel positions : Front: L R\r\nSampling rate : 48.0 KHz\r\nCompression mode : Lossy\r\nStream size : 89.5 MiB (4%)\r\n\r\n\r\n\r\nScreen Shots:\r\n  \nhttp://i.imgur.com/QEF1clV.png\r\n  \nhttp://i.imgur.com/7OX05s0.jpg\r\n \nhttp://i.imgur.com/VdV7pBC.png\r\n  \nhttp://i.imgur.com/xI8Ihpp.jpg\r\n  \nhttp://i.imgur.com/yOfL9st.jpg\r\n\r\n\r\n\r\nAlso included a sample, enjoy.\t\t\r\n\r\n\r\n\r\nTutorial on how I blur subtitles here.\r\n  \nhttps://pirates-forum.org/Thread-How-To-Blur-Subtitles-Like-a-Pro-The-Easy-Way","torrent":{"xt":"urn:btih:828da49d9ba7d017e6105c29db33b9e48bf43c1f","amp;dn":"Everest+%282015%29+1080p+Blurred+Subtitles-BDM","amp;tr":["udp%3A%2F%2Ftracker.leechers-paradise.org%3A6969","udp%3A%2F%2Fzer0day.ch%3A1337","udp%3A%2F%2Fopen.demonii.com%3A1337","udp%3A%2F%2Ftracker.coppersurfer.tk%3A6969","udp%3A%2F%2Fexodus.desync.com%3A6969"],"infoHash":"828da49d9ba7d017e6105c29db33b9e48bf43c1f","infoHashBuffer":{"type":"Buffer","data":[130,141,164,157,155,167,208,23,230,16,92,41,219,51,185,228,139,244,60,31]},"announce":[],"urlList":[]}}